<svg width="24" height="36" viewBox="0 0 24 36" fill="none" xmlns="http://www.w3.org/2000/svg">
<path fill-rule="evenodd" clip-rule="evenodd" d="M10.12 10.1398C8.53136 10.1398 7.00778 10.7709 5.88444 11.8943C4.76109 13.0176 4.13 14.5412 4.13 16.1298C4.13 17.7185 4.76109 19.2421 5.88444 20.3654C7.00778 21.4887 8.53136 22.1198 10.12 22.1198C11.7087 22.1198 13.2322 21.4887 14.3556 20.3654C15.4789 19.2421 16.11 17.7185 16.11 16.1298C16.11 14.5412 15.4789 13.0176 14.3556 11.8943C13.2322 10.7709 11.7087 10.1398 10.12 10.1398ZM2.63 16.1298C2.62998 14.9304 2.91797 13.7486 3.46977 12.6837C4.02157 11.6188 4.82103 10.702 5.80091 10.0104C6.78079 9.31876 7.91243 8.87257 9.10064 8.70934C10.2889 8.54611 11.4989 8.67061 12.629 9.07237C13.7591 9.47413 14.7761 10.1414 15.5947 11.0181C16.4132 11.8947 17.0092 12.9551 17.3326 14.1101C17.656 15.265 17.6973 16.4807 17.453 17.655C17.2088 18.8292 16.6861 19.9276 15.929 20.8578L21.37 26.2998L20.31 27.3608L14.87 21.9208C13.7731 22.8205 12.4433 23.3901 11.0354 23.5635C9.62737 23.7369 8.19909 23.5068 6.91675 22.9001C5.63441 22.2934 4.55074 21.335 3.79184 20.1365C3.03294 18.9379 2.63004 17.5484 2.63 16.1298Z" fill="#E1672A"/>
</svg>
