<svg width="36" height="36" viewBox="0 0 36 36" fill="none" xmlns="http://www.w3.org/2000/svg">
<rect width="36" height="36" rx="18" fill="#E3D8BF"/>
<path fill-rule="evenodd" clip-rule="evenodd" d="M9.798 11.1659C10.8651 10.178 12.2658 9.62937 13.72 9.62988C15.175 9.62988 16.577 10.1779 17.642 11.1659L17.647 11.1709L17.988 11.4929L18.32 11.1759C19.388 10.1851 20.7912 9.63494 22.248 9.63588C23.706 9.63588 25.11 10.1859 26.176 11.1759L26.18 11.1799C27.273 12.2119 27.778 13.5039 27.749 14.8419C27.719 16.1649 27.17 17.4849 26.249 18.6269C25.365 19.7229 23.399 21.5699 21.702 23.1049C20.6616 24.0451 19.6105 24.9735 18.549 25.8899L18.48 25.9489L17.995 26.3649L17.507 25.9529C14.7987 23.66 12.2118 21.2274 9.757 18.6649L9.736 18.6439L9.716 18.6209C7.991 16.5059 7.513 13.3009 9.796 11.1679L9.798 11.1659ZM17.988 24.3919L18.46 23.9799C19.2107 23.3233 19.9561 22.6606 20.696 21.9919C22.416 20.4359 24.286 18.6719 25.081 17.6859C25.838 16.7469 26.228 15.7379 26.249 14.8089C26.269 13.8969 25.936 13.0139 25.152 12.2729C24.3621 11.5409 23.3249 11.1345 22.248 11.1349C21.168 11.1349 20.131 11.5419 19.345 12.2709L17.995 13.5629L16.62 12.2629C15.8304 11.5337 14.7948 11.1291 13.72 11.1299C12.6446 11.1294 11.6086 11.5347 10.819 12.2649C9.312 13.6729 9.466 15.9239 10.861 17.6499C13.1261 20.0113 15.5045 22.2613 17.988 24.3919Z" fill="#E1672A"/>
</svg>
