<svg width="20" height="20" viewBox="0 0 20 20" fill="none" xmlns="http://www.w3.org/2000/svg">
<path fill-rule="evenodd" clip-rule="evenodd" d="M7.75832 8.18365H11.24C11.1825 6.85781 10.9433 5.68948 10.6017 4.83615C10.4042 4.34198 10.1842 3.98365 9.97166 3.75865C9.79582 3.57282 9.65499 3.50865 9.55499 3.49198H9.44416C9.34416 3.50865 9.20332 3.57282 9.02749 3.75865C8.81499 3.98365 8.59499 4.34198 8.39749 4.83615C8.05582 5.68948 7.81666 6.85781 7.75832 8.18365ZM7.44666 3.90032C7.37166 4.05143 7.30166 4.20865 7.23666 4.37198C6.82832 5.39365 6.56666 6.72532 6.50832 8.18365H4.21249C4.32394 7.24735 4.68202 6.35744 5.2501 5.60487C5.81818 4.85231 6.57674 4.26408 7.44666 3.90032ZM9.36332 2.24282C7.64428 2.27706 6.00718 2.98391 4.80344 4.21164C3.59971 5.43937 2.9253 7.0901 2.92499 8.80948C2.92444 9.67246 3.094 10.5271 3.42397 11.3245C3.75394 12.1219 4.23785 12.8464 4.84803 13.4567C5.4582 14.0669 6.18269 14.5509 6.98005 14.881C7.77741 15.2111 8.63201 15.3808 9.49499 15.3803C9.98166 15.3803 10.2208 15.3686 10.42 15.3186C10.5233 15.2928 10.5633 15.2778 10.5975 15.2653C10.6458 15.2486 10.68 15.2353 10.8575 15.2045L10.6408 13.9736C10.4631 14.0036 10.2881 14.0479 10.1175 14.1061C10.0917 14.112 10.0075 14.1303 9.49832 14.1303C9.39749 14.1303 9.23749 14.0803 9.02666 13.8578C8.81416 13.6328 8.59416 13.2753 8.39666 12.7811C8.05499 11.927 7.81582 10.7595 7.75749 9.43365H11.26C11.2499 9.67018 11.2184 9.90531 11.1658 10.1361C11.1388 10.2519 11.1077 10.3667 11.0725 10.4803L11.0625 10.5136L11.0592 10.527C11.0308 10.622 10.985 10.7753 10.9758 10.9253L12.2242 10.9986V11.0036C12.2242 11.0036 12.23 10.9745 12.2608 10.8695L12.2708 10.8361C12.3025 10.7311 12.3458 10.5878 12.3842 10.4153C12.4442 10.1545 12.4958 9.83365 12.5108 9.43365H14.7892C14.7657 9.70265 14.7111 9.96802 14.6267 10.2245C14.5808 10.3578 14.535 10.4578 14.4883 10.5603L14.485 10.5686L14.4767 10.5853C14.4383 10.6695 14.3667 10.8253 14.3425 10.9903L15.5792 11.1728L15.575 11.1945C15.575 11.1945 15.585 11.1678 15.6225 11.0861L15.6292 11.0711C15.6758 10.9686 15.7433 10.8211 15.8092 10.6303C15.9492 10.222 16.0675 9.65698 16.0675 8.80865C16.0676 7.09006 15.394 5.43991 14.1912 4.21236C12.9885 2.98481 11.3524 2.27771 9.63416 2.24282C9.54403 2.23547 9.45345 2.23547 9.36332 2.24282ZM11.5517 3.90115C11.6261 4.0517 11.6961 4.20865 11.7617 4.37198C12.17 5.39365 12.4325 6.72532 12.4908 8.18365H14.7825C14.6721 7.24735 14.3147 6.35724 13.747 5.60456C13.1793 4.85188 12.4216 4.2637 11.5517 3.90032M7.44999 13.722C7.37266 13.5657 7.30149 13.4064 7.23666 13.2445C6.82832 12.222 6.56582 10.8911 6.50749 9.43282H4.21249C4.32335 10.3706 4.68159 11.262 5.2505 12.0157C5.8194 12.7695 6.57851 13.3583 7.44999 13.722Z" fill="#E1672A"/>
<path fill-rule="evenodd" clip-rule="evenodd" d="M17.0742 10.2861H9.7825V15.8261H14.1617L17.0742 17.7636V10.2861ZM15.8242 11.5361V15.4311L14.5392 14.5761H11.0333V11.5361H15.8242Z" fill="#E1672A"/>
</svg>
