<svg width="20" height="20" viewBox="0 0 20 20" fill="none" xmlns="http://www.w3.org/2000/svg">
<path fill-rule="evenodd" clip-rule="evenodd" d="M7.75838 8.18365H11.2401C11.1826 6.85781 10.9434 5.68948 10.6017 4.83615C10.4042 4.34198 10.1842 3.98365 9.97172 3.75865C9.79588 3.57282 9.65505 3.50865 9.55505 3.49198H9.44422C9.34422 3.50865 9.20338 3.57282 9.02755 3.75865C8.81505 3.98365 8.59505 4.34198 8.39755 4.83615C8.05588 5.68948 7.81672 6.85781 7.75838 8.18365ZM7.44672 3.90032C7.37172 4.05143 7.30172 4.20865 7.23672 4.37198C6.82838 5.39365 6.56672 6.72532 6.50838 8.18365H4.21255C4.32401 7.24735 4.68208 6.35744 5.25016 5.60487C5.81825 4.85231 6.5768 4.26408 7.44672 3.90032ZM9.36338 2.24282C7.64434 2.27706 6.00724 2.98391 4.80351 4.21164C3.59977 5.43937 2.92536 7.0901 2.92505 8.80948C2.9245 9.67246 3.09406 10.5271 3.42403 11.3245C3.754 12.1219 4.23791 12.8464 4.84809 13.4567C5.45827 14.0669 6.18275 14.5509 6.98011 14.881C7.77747 15.2111 8.63207 15.3808 9.49505 15.3803C9.98172 15.3803 10.2209 15.3686 10.42 15.3186C10.5234 15.2928 10.5634 15.2778 10.5975 15.2653C10.6459 15.2486 10.6801 15.2353 10.8576 15.2045L10.6409 13.9736C10.4631 14.0036 10.2881 14.0479 10.1175 14.1061C10.0917 14.112 10.0075 14.1303 9.49838 14.1303C9.39755 14.1303 9.23755 14.0803 9.02672 13.8578C8.81422 13.6328 8.59422 13.2753 8.39672 12.7811C8.05505 11.927 7.81588 10.7595 7.75755 9.43365H11.26C11.25 9.67018 11.2184 9.90531 11.1659 10.1361C11.1389 10.2519 11.1077 10.3667 11.0725 10.4803L11.0625 10.5136L11.0592 10.527C11.0309 10.622 10.985 10.7753 10.9759 10.9253L12.2242 10.9986V11.0036C12.2242 11.0036 12.2301 10.9745 12.2609 10.8695L12.2709 10.8361C12.3026 10.7311 12.3459 10.5878 12.3842 10.4153C12.4442 10.1545 12.4959 9.83365 12.5109 9.43365H14.7892C14.7657 9.70265 14.7112 9.96802 14.6267 10.2245C14.5809 10.3578 14.535 10.4578 14.4884 10.5603L14.4851 10.5686L14.4767 10.5853C14.4384 10.6695 14.3667 10.8253 14.3426 10.9903L15.5792 11.1728L15.5751 11.1945C15.5751 11.1945 15.585 11.1678 15.6226 11.0861L15.6292 11.0711C15.6759 10.9686 15.7434 10.8211 15.8092 10.6303C15.9492 10.222 16.0675 9.65698 16.0675 8.80865C16.0677 7.09006 15.3941 5.43991 14.1913 4.21236C12.9885 2.98481 11.3524 2.27771 9.63422 2.24282C9.54409 2.23547 9.45351 2.23547 9.36338 2.24282ZM11.5517 3.90115C11.6262 4.0517 11.6962 4.20865 11.7617 4.37198C12.1701 5.39365 12.4326 6.72532 12.4909 8.18365H14.7825C14.6722 7.24735 14.3148 6.35724 13.7471 5.60456C13.1793 4.85188 12.4217 4.2637 11.5517 3.90032M7.45005 13.722C7.37272 13.5657 7.30156 13.4064 7.23672 13.2445C6.82838 12.222 6.56588 10.8911 6.50755 9.43282H4.21255C4.32341 10.3706 4.68165 11.262 5.25056 12.0157C5.81946 12.7695 6.57857 13.3583 7.45005 13.722Z" fill="#E1672A"/>
<path fill-rule="evenodd" clip-rule="evenodd" d="M17.0741 10.2861H9.78247V15.8261H14.1616L17.0741 17.7636V10.2861ZM15.8241 11.5361V15.4311L14.5391 14.5761H11.0333V11.5361H15.8241Z" fill="#E1672A"/>
</svg>
