<svg width="20" height="20" viewBox="0 0 20 20" fill="none" xmlns="http://www.w3.org/2000/svg">
<path fill-rule="evenodd" clip-rule="evenodd" d="M8.43332 3.45034C7.10944 3.45034 5.83979 3.97625 4.90368 4.91237C3.96756 5.84848 3.44165 7.11813 3.44165 8.44201C3.44165 9.76588 3.96756 11.0355 4.90368 11.9716C5.83979 12.9078 7.10944 13.4337 8.43332 13.4337C9.75719 13.4337 11.0268 12.9078 11.963 11.9716C12.8991 11.0355 13.425 9.76588 13.425 8.44201C13.425 7.11813 12.8991 5.84848 11.963 4.91237C11.0268 3.97625 9.75719 3.45034 8.43332 3.45034ZM2.19165 8.44201C2.19163 7.44253 2.43163 6.45766 2.89146 5.57024C3.35129 4.68283 4.01751 3.91881 4.83407 3.34247C5.65064 2.76612 6.59367 2.3943 7.58385 2.25827C8.57403 2.12225 9.58239 2.226 10.5241 2.5608C11.4659 2.8956 12.3134 3.45166 12.9955 4.1822C13.6776 4.91275 14.1743 5.79642 14.4438 6.75887C14.7133 7.72133 14.7477 8.73444 14.5442 9.71297C14.3406 10.6915 13.9051 11.6068 13.2741 12.382L17.8083 16.917L16.925 17.8012L12.3917 13.2678C11.4776 14.0176 10.3694 14.4923 9.19611 14.6368C8.02279 14.7812 6.83256 14.5895 5.76394 14.0839C4.69532 13.5783 3.79226 12.7797 3.15985 11.7809C2.52743 10.7821 2.19168 9.62419 2.19165 8.44201Z" fill="#E1672A"/>
</svg>
