<svg width="35" height="35" viewBox="0 0 35 35" fill="none" xmlns="http://www.w3.org/2000/svg">
<rect x="0.416667" y="0.416667" width="34.1667" height="34.1667" rx="16.25" stroke="#E1672A" stroke-width="0.833333"/>
<path fill-rule="evenodd" clip-rule="evenodd" d="M14.1667 11.4585C14.0025 11.4585 13.84 11.4908 13.6883 11.5536C13.5367 11.6165 13.3989 11.7085 13.2828 11.8246C13.1667 11.9407 13.0746 12.0785 13.0118 12.2301C12.949 12.3818 12.9167 12.5443 12.9167 12.7085C12.9167 12.8726 12.949 13.0352 13.0118 13.1869C13.0746 13.3385 13.1667 13.4763 13.2828 13.5924C13.3989 13.7085 13.5367 13.8005 13.6883 13.8633C13.84 13.9262 14.0025 13.9585 14.1667 13.9585C14.4982 13.9585 14.8161 13.8268 15.0505 13.5924C15.285 13.358 15.4167 13.04 15.4167 12.7085C15.4167 12.377 15.285 12.059 15.0505 11.8246C14.8161 11.5902 14.4982 11.4585 14.1667 11.4585ZM11.6667 12.7085C11.6667 12.0455 11.9301 11.4096 12.3989 10.9407C12.8677 10.4719 13.5036 10.2085 14.1667 10.2085C14.8297 10.2085 15.4656 10.4719 15.9344 10.9407C16.4033 11.4096 16.6667 12.0455 16.6667 12.7085C16.6667 13.3715 16.4033 14.0074 15.9344 14.4763C15.4656 14.9451 14.8297 15.2085 14.1667 15.2085C13.5036 15.2085 12.8677 14.9451 12.3989 14.4763C11.9301 14.0074 11.6667 13.3715 11.6667 12.7085ZM20.8333 13.1252C20.5018 13.1252 20.1839 13.2569 19.9494 13.4913C19.715 13.7257 19.5833 14.0436 19.5833 14.3752C19.5833 14.7067 19.715 15.0246 19.9494 15.259C20.1839 15.4935 20.5018 15.6252 20.8333 15.6252C21.1649 15.6252 21.4828 15.4935 21.7172 15.259C21.9516 15.0246 22.0833 14.7067 22.0833 14.3752C22.0833 14.0436 21.9516 13.7257 21.7172 13.4913C21.4828 13.2569 21.1649 13.1252 20.8333 13.1252ZM18.3333 14.3752C18.3333 13.7121 18.5967 13.0762 19.0656 12.6074C19.5344 12.1386 20.1703 11.8752 20.8333 11.8752C21.4964 11.8752 22.1323 12.1386 22.6011 12.6074C23.0699 13.0762 23.3333 13.7121 23.3333 14.3752C23.3333 15.0382 23.0699 15.6741 22.6011 16.1429C22.1323 16.6118 21.4964 16.8752 20.8333 16.8752C20.1703 16.8752 19.5344 16.6118 19.0656 16.1429C18.5967 15.6741 18.3333 15.0382 18.3333 14.3752ZM14.1667 16.4585C15.0185 16.4528 15.861 16.6362 16.6334 16.9955C17.4058 17.3547 18.0888 17.8809 18.6333 18.536C19.8294 18.0456 21.155 17.9689 22.3996 18.318C23.6443 18.667 24.7367 19.4219 25.5033 20.4627L25.625 20.6285V24.7918H9.375V18.961L9.4975 18.7952C10.0366 18.0654 10.7406 17.4733 11.552 17.0672C12.3634 16.6611 13.2593 16.4526 14.1667 16.4585ZM17.2917 23.5418H24.375V21.046C23.9485 20.5172 23.4091 20.0906 22.7962 19.7976C22.1834 19.5045 21.5127 19.3524 20.8333 19.3524C20.154 19.3524 19.4833 19.5045 18.8705 19.7976C18.2576 20.0906 17.7181 20.5172 17.2917 21.046V23.5418ZM16.0417 23.5418H10.625V19.3802C11.0512 18.8537 11.5905 18.43 12.203 18.1406C12.8154 17.8512 13.4852 17.7035 14.1625 17.7085H14.1708C14.797 17.7033 15.4173 17.8289 15.9921 18.0771C16.5669 18.3254 17.0836 18.6908 17.5092 19.1502C16.9925 19.512 16.538 19.9553 16.1633 20.4627L16.0417 20.6285V23.5418Z" fill="#E1672A"/>
</svg>
