<svg width="35" height="35" viewBox="0 0 35 35" fill="none" xmlns="http://www.w3.org/2000/svg">
<rect x="0.416667" y="0.416667" width="34.1667" height="34.1667" rx="16.25" stroke="#E1672A" stroke-width="0.833333"/>
<path fill-rule="evenodd" clip-rule="evenodd" d="M15.0251 10.0752L20.0251 11.7419L25.6251 10.3419V23.2969L19.9751 24.7094L15.0001 23.0502L9.37512 24.9252V11.4869L15.0251 10.0752ZM15.6251 21.9419L19.3751 23.1919V18.6752L15.6251 17.4252V21.9419ZM14.3751 16.0902L10.6251 17.1835V12.4635L14.3751 11.526V16.0902ZM15.6251 11.5927V16.1077L19.3751 17.3577V12.8427L15.6251 11.5927ZM20.6251 12.8802V17.4244L24.3751 16.4869V11.9427L20.6251 12.8802ZM24.3751 17.776L20.6251 18.7135V23.2577L24.3751 22.3202V17.776ZM10.6251 18.486L14.3751 17.3919V21.9419L10.6251 23.1919V18.486Z" fill="#E1672A"/>
</svg>
