<svg width="35" height="35" viewBox="0 0 35 35" fill="none" xmlns="http://www.w3.org/2000/svg">
<rect x="0.416667" y="0.416667" width="34.1667" height="34.1667" rx="16.25" stroke="#E1672A" stroke-width="0.833333"/>
<path fill-rule="evenodd" clip-rule="evenodd" d="M10.665 11.8044C11.5542 10.9811 12.7215 10.524 13.9334 10.5244C15.1459 10.5244 16.3142 10.9811 17.2017 11.8044L17.2059 11.8086L17.49 12.0769L17.7667 11.8127C18.6567 10.9871 19.826 10.5286 21.04 10.5294C22.255 10.5294 23.425 10.9877 24.3134 11.8127L24.3167 11.8161C25.2275 12.6761 25.6484 13.7527 25.6242 14.8677C25.5992 15.9702 25.1417 17.0702 24.3742 18.0219C23.6375 18.9352 21.9992 20.4744 20.585 21.7536C19.718 22.5371 18.8421 23.3108 17.9575 24.0744L17.9 24.1236L17.4959 24.4702L17.0892 24.1269C14.8322 22.2162 12.6765 20.189 10.6309 18.0536L10.6134 18.0361L10.5967 18.0169C9.15919 16.2544 8.76085 13.5836 10.6634 11.8061L10.665 11.8044ZM17.49 22.8261L17.8834 22.4827C18.5089 21.9356 19.1301 21.3833 19.7467 20.8261C21.18 19.5294 22.7384 18.0594 23.4009 17.2377C24.0317 16.4552 24.3567 15.6144 24.3742 14.8402C24.3909 14.0802 24.1134 13.3444 23.46 12.7269C22.8018 12.117 21.9374 11.7782 21.04 11.7786C20.14 11.7786 19.2759 12.1177 18.6209 12.7252L17.4959 13.8019L16.35 12.7186C15.692 12.1109 14.829 11.7738 13.9334 11.7744C13.0372 11.774 12.1738 12.1118 11.5159 12.7202C10.26 13.8936 10.3884 15.7694 11.5509 17.2077C13.4384 19.1756 15.4205 21.0506 17.49 22.8261Z" fill="#E1672A"/>
</svg>
