<svg width="35" height="35" viewBox="0 0 35 35" fill="none" xmlns="http://www.w3.org/2000/svg">
<rect x="0.416667" y="0.416667" width="34.1667" height="34.1667" rx="16.25" stroke="#E1672A" stroke-width="0.833333"/>
<path fill-rule="evenodd" clip-rule="evenodd" d="M17.9415 11.764C17.3465 11.5443 16.8061 11.1982 16.3576 10.7497C15.909 10.3011 15.563 9.76074 15.3432 9.16568C15.2532 8.92068 14.8982 8.92068 14.8082 9.16568C14.5902 9.76132 14.2451 10.3023 13.7968 10.751C13.3485 11.1998 12.8078 11.5454 12.2124 11.764C11.9674 11.854 11.9674 12.209 12.2124 12.299C12.8074 12.5188 13.3478 12.8648 13.7964 13.3134C14.2449 13.7619 14.591 14.3023 14.8107 14.8974C14.9007 15.1424 15.2557 15.1424 15.3457 14.8974C15.5655 14.3023 15.9115 13.7619 16.3601 13.3134C16.8086 12.8648 17.349 12.5188 17.944 12.299C18.189 12.209 18.189 11.854 17.944 11.764H17.9415ZM19.3874 11.4157C19.2224 11.4157 19.0642 11.4812 18.9475 11.5979C18.8308 11.7146 18.7653 11.8728 18.7653 12.0378C18.7653 12.2028 18.8308 12.361 18.9475 12.4776C19.0642 12.5943 19.2224 12.6599 19.3874 12.6599C21.934 12.6599 23.994 14.7015 23.994 17.1607C23.994 18.4515 23.3224 19.8707 22.2857 21.2874C21.3732 22.5332 20.2824 23.644 19.3957 24.5224C18.504 23.644 17.3965 22.5215 16.4765 21.264C15.4482 19.8557 14.7824 18.4457 14.7824 17.1607C14.7824 16.9957 14.7168 16.8375 14.6002 16.7208C14.4835 16.6041 14.3253 16.5386 14.1603 16.5386C13.9953 16.5386 13.8371 16.6041 13.7204 16.7208C13.6038 16.8375 13.5382 16.9957 13.5382 17.1607C13.5382 18.8432 14.3915 20.5182 15.4715 21.9973C16.554 23.4757 17.8649 24.764 18.7882 25.6698L18.8215 25.7032L18.9549 25.8365C19.0701 25.9524 19.2264 26.0183 19.3898 26.0199C19.5533 26.0214 19.7108 25.9586 19.8282 25.8449L19.9532 25.7232L19.9699 25.7065L20.014 25.6598L20.0165 25.6582C20.9349 24.7498 22.2207 23.4807 23.289 22.0232C24.3774 20.5357 25.2382 18.8498 25.2382 17.1607C25.2382 13.9915 22.5982 11.4157 19.3874 11.4157ZM18.5374 15.7857C18.7932 15.6795 19.0805 15.6782 19.3373 15.782C19.5941 15.8859 19.7998 16.0865 19.9099 16.3407C19.9612 16.4652 19.9873 16.5986 19.9866 16.7333C19.9859 16.8679 19.9585 17.0011 19.906 17.1251C19.8534 17.249 19.7767 17.3613 19.6804 17.4554C19.5841 17.5495 19.47 17.6235 19.3449 17.6732C19.0891 17.7794 18.8017 17.7807 18.5449 17.6768C18.2881 17.573 18.0825 17.3723 17.9724 17.1182C17.921 16.9936 17.8948 16.86 17.8955 16.7253C17.8961 16.5905 17.9236 16.4572 17.9762 16.3331C18.0289 16.209 18.1057 16.0967 18.2022 16.0025C18.2986 15.9084 18.4129 15.8344 18.5382 15.7849M18.0665 14.6273C19.2307 14.1523 20.5749 14.6915 21.0632 15.8565C21.1784 16.1333 21.2375 16.4303 21.2372 16.7301C21.2368 17.03 21.1769 17.3267 21.0611 17.6033C20.9452 17.8798 20.7756 18.1306 20.5621 18.3412C20.3486 18.5517 20.0955 18.7178 19.8174 18.8299C18.6532 19.3049 17.309 18.7649 16.8207 17.5999C16.7053 17.3231 16.646 17.0262 16.6463 16.7264C16.6465 16.4265 16.7064 16.1297 16.8223 15.8532C16.9382 15.5766 17.1078 15.3259 17.3214 15.1154C17.535 14.905 17.7883 14.7391 18.0665 14.6273ZM12.129 13.4757C12.2859 13.9009 12.5331 14.287 12.8537 14.6074C13.1742 14.9278 13.5604 15.1749 13.9857 15.3315H13.9874C14.1624 15.3957 14.1624 15.6498 13.9874 15.714C13.5624 15.8712 13.1764 16.1184 12.8559 16.4387C12.5354 16.759 12.288 17.1449 12.1307 17.5698C12.0665 17.7449 11.814 17.7449 11.749 17.5698C11.5918 17.145 11.3445 16.7592 11.0242 16.4389C10.7039 16.1185 10.3181 15.8713 9.89321 15.714C9.71821 15.6498 9.71821 15.3957 9.89321 15.3315C10.3186 15.1755 10.7048 14.9287 11.0251 14.6082C11.3453 14.2877 11.5918 13.9012 11.7474 13.4757C11.8115 13.3007 12.0649 13.3007 12.129 13.4757Z" fill="#E1672A"/>
</svg>
