<svg width="17" height="17" viewBox="0 0 17 17" fill="none" xmlns="http://www.w3.org/2000/svg">
<path fill-rule="evenodd" clip-rule="evenodd" d="M8.87503 3.62476C8.36924 3.43797 7.90992 3.14384 7.52866 2.76258C7.14741 2.38133 6.85327 1.92201 6.66649 1.41622C6.58999 1.20797 6.28824 1.20797 6.21175 1.41622C6.02644 1.9225 5.73307 2.38234 5.35203 2.76375C4.97099 3.14515 4.51144 3.43897 4.00533 3.62476C3.79708 3.70126 3.79708 4.003 4.00533 4.0795C4.51112 4.26628 4.97044 4.56042 5.35169 4.94168C5.73295 5.32293 6.02709 5.78225 6.21387 6.28804C6.29037 6.49629 6.59211 6.49629 6.66861 6.28804C6.8554 5.78225 7.14953 5.32293 7.53079 4.94168C7.91204 4.56042 8.37136 4.26628 8.87715 4.0795C9.0854 4.003 9.0854 3.70126 8.87715 3.62476H8.87503ZM10.104 3.32868C9.96372 3.32868 9.82923 3.38439 9.73007 3.48355C9.63091 3.58271 9.5752 3.71721 9.5752 3.85744C9.5752 3.99768 9.63091 4.13217 9.73007 4.23133C9.82923 4.33049 9.96372 4.3862 10.104 4.3862C12.2686 4.3862 14.0195 6.12158 14.0195 8.21184C14.0195 9.30902 13.4486 10.5153 12.5675 11.7194C11.7919 12.7784 10.8647 13.7226 10.111 14.4691C9.35314 13.7226 8.41179 12.7685 7.6298 11.6996C6.75573 10.5025 6.18979 9.30406 6.18979 8.21184C6.18979 8.0716 6.13408 7.93711 6.03492 7.83795C5.93575 7.73878 5.80126 7.68307 5.66103 7.68307C5.52079 7.68307 5.3863 7.73878 5.28714 7.83795C5.18797 7.93711 5.13227 8.0716 5.13227 8.21184C5.13227 9.64193 5.85759 11.0657 6.77557 12.3229C7.69567 13.5795 8.80986 14.6745 9.59468 15.4445L9.62301 15.4728L9.73634 15.5861C9.8343 15.6847 9.96712 15.7407 10.106 15.742C10.245 15.7433 10.3788 15.6899 10.4787 15.5932L10.5849 15.4898L10.5991 15.4757L10.6366 15.436L10.6387 15.4346C11.4193 14.6625 12.5122 13.5837 13.4203 12.3449C14.3454 11.0805 15.0771 9.6476 15.0771 8.21184C15.0771 5.5181 12.8331 3.32868 10.104 3.32868ZM9.38147 7.04311C9.59892 6.95285 9.84315 6.95173 10.0614 7.03999C10.2797 7.12825 10.4545 7.29881 10.5481 7.51485C10.5917 7.62066 10.6139 7.73409 10.6133 7.84853C10.6127 7.96298 10.5894 8.07618 10.5447 8.18155C10.5001 8.28692 10.4349 8.38237 10.353 8.46235C10.2712 8.54232 10.1742 8.60524 10.0678 8.64745C9.85039 8.73771 9.60616 8.73883 9.3879 8.65057C9.16963 8.56231 8.99483 8.39175 8.90123 8.17571C8.85752 8.06982 8.8353 7.95629 8.83586 7.84172C8.83643 7.72716 8.85977 7.61386 8.90452 7.5084C8.94927 7.40294 9.01455 7.30743 9.09656 7.22743C9.17856 7.14743 9.27565 7.08453 9.38218 7.0424M8.98127 6.05854C9.9708 5.6548 11.1133 6.11308 11.5284 7.10332C11.6263 7.33862 11.6766 7.591 11.6762 7.84586C11.6759 8.10072 11.6251 8.35298 11.5266 8.58804C11.4281 8.8231 11.2839 9.03628 11.1025 9.21524C10.921 9.3942 10.7059 9.53538 10.4695 9.6306C9.47993 10.0343 8.33741 9.57535 7.92234 8.58512C7.82424 8.34989 7.77384 8.09753 7.77407 7.84266C7.7743 7.5878 7.82514 7.33553 7.92366 7.10047C8.02217 6.86542 8.16639 6.65228 8.34795 6.47342C8.5295 6.29456 8.74478 6.15354 8.98127 6.05854ZM3.9345 5.07965C4.06781 5.44107 4.27795 5.76926 4.55041 6.0416C4.82286 6.31393 5.15115 6.52392 5.51263 6.65707H5.51405C5.6628 6.71161 5.6628 6.92765 5.51405 6.98219C5.15281 7.11576 4.82473 7.32589 4.55233 7.59817C4.27993 7.87045 4.06965 8.19844 3.93591 8.55962C3.88137 8.70837 3.66675 8.70837 3.6115 8.55962C3.47785 8.19851 3.26768 7.87057 2.9954 7.59829C2.72313 7.32602 2.39519 7.11585 2.03408 6.98219C1.88533 6.92765 1.88533 6.71161 2.03408 6.65707C2.39564 6.5245 2.72395 6.31469 2.99613 6.04226C3.26832 5.76983 3.47784 5.44133 3.61009 5.07965C3.66463 4.9309 3.87996 4.9309 3.9345 5.07965Z" fill="#E1672A"/>
</svg>
