<svg width="17" height="17" viewBox="0 0 17 17" fill="none" xmlns="http://www.w3.org/2000/svg">
<path fill-rule="evenodd" clip-rule="evenodd" d="M6.59433 6.95593H9.55374C9.50486 5.82897 9.30157 4.83589 9.01116 4.11056C8.84328 3.69051 8.65628 3.38593 8.47566 3.19468C8.3262 3.03672 8.20649 2.98218 8.12149 2.96801H8.02728C7.94228 2.98218 7.82258 3.03672 7.67312 3.19468C7.49249 3.38593 7.30549 3.69051 7.13762 4.11056C6.8472 4.83589 6.64391 5.82897 6.59433 6.95593ZM6.32941 3.3151C6.26566 3.44354 6.20616 3.57718 6.15091 3.71601C5.80383 4.58443 5.58141 5.71634 5.53183 6.95593H3.58037C3.67511 6.16007 3.97947 5.40365 4.46234 4.76397C4.94521 4.12429 5.58998 3.6243 6.32941 3.3151ZM7.95858 1.90622C6.49739 1.93533 5.10586 2.53616 4.08268 3.57972C3.05951 4.62329 2.48627 6.02641 2.486 7.48788C2.48553 8.22141 2.62966 8.94784 2.91013 9.62564C3.1906 10.3034 3.60193 10.9193 4.12058 11.438C4.63923 11.9567 5.25504 12.3681 5.93279 12.6487C6.61055 12.9292 7.33696 13.0735 8.07049 13.0731C8.48416 13.0731 8.68745 13.0632 8.85674 13.0207C8.94457 12.9987 8.97857 12.986 9.00762 12.9753C9.0487 12.9612 9.07774 12.9498 9.22862 12.9236L9.04445 11.8774C8.89337 11.9029 8.7446 11.9405 8.59962 11.99C8.57766 11.995 8.50612 12.0106 8.07332 12.0106C7.98762 12.0106 7.85162 11.9681 7.67241 11.779C7.49178 11.5877 7.30478 11.2838 7.13691 10.8638C6.84649 10.1378 6.6432 9.14538 6.59362 8.01843H9.57074C9.56216 8.21948 9.53537 8.41934 9.4907 8.61555C9.46774 8.71398 9.44128 8.81155 9.41136 8.90809L9.40286 8.93642L9.40003 8.94776C9.37595 9.02851 9.33699 9.15884 9.3292 9.28634L10.3903 9.34867V9.35292C10.3903 9.35292 10.3952 9.32813 10.4214 9.23888L10.4299 9.21055C10.4569 9.1213 10.4937 8.99947 10.5263 8.85284C10.5773 8.63113 10.6212 8.35842 10.6339 8.01843H12.5705C12.5506 8.24707 12.5042 8.47264 12.4324 8.69063C12.3934 8.80397 12.3545 8.88897 12.3148 8.97609L12.312 8.98317L12.3049 8.99734C12.2723 9.06888 12.2114 9.20134 12.1909 9.34159L13.242 9.49672L13.2385 9.51513C13.2385 9.51513 13.247 9.49247 13.2789 9.42305L13.2845 9.4103C13.3242 9.32317 13.3816 9.1978 13.4375 9.03559C13.5565 8.68851 13.6571 8.20826 13.6571 7.48718C13.6572 6.02638 13.0847 4.62375 12.0623 3.58034C11.0399 2.53692 9.64928 1.93589 8.18878 1.90622C8.11217 1.89998 8.03518 1.89998 7.95858 1.90622ZM9.81866 3.31581C9.88193 3.44378 9.94143 3.57718 9.99716 3.71601C10.3442 4.58443 10.5674 5.71634 10.6169 6.95593H12.5649C12.471 6.16007 12.1673 5.40348 11.6847 4.7637C11.2021 4.12393 10.5581 3.62398 9.81866 3.3151M6.33224 11.6635C6.26651 11.5306 6.20602 11.3952 6.15091 11.2576C5.80383 10.3885 5.5807 9.2573 5.53112 8.01772H3.58037C3.6746 8.81483 3.97911 9.57255 4.46268 10.2132C4.94625 10.8539 5.59148 11.3544 6.33224 11.6635Z" fill="#E1672A"/>
<path fill-rule="evenodd" clip-rule="evenodd" d="M14.5132 8.7432H8.31532V13.4522H12.0376L14.5132 15.0991V8.7432ZM13.4507 9.8057V13.1164L12.3585 12.3897H9.37852V9.8057H13.4507Z" fill="#E1672A"/>
</svg>
