<svg width="20" height="30" viewBox="0 0 20 30" fill="none" xmlns="http://www.w3.org/2000/svg">
<path fill-rule="evenodd" clip-rule="evenodd" d="M8.43307 8.45376C7.1092 8.45376 5.83955 8.97966 4.90343 9.91578C3.96731 10.8519 3.44141 12.1216 3.44141 13.4454C3.44141 14.7693 3.96731 16.0389 4.90343 16.9751C5.83955 17.9112 7.1092 18.4371 8.43307 18.4371C9.75694 18.4371 11.0266 17.9112 11.9627 16.9751C12.8988 16.0389 13.4247 14.7693 13.4247 13.4454C13.4247 12.1216 12.8988 10.8519 11.9627 9.91578C11.0266 8.97966 9.75694 8.45376 8.43307 8.45376ZM2.19141 13.4454C2.19138 12.4459 2.43138 11.4611 2.89121 10.5737C3.35105 9.68624 4.01726 8.92223 4.83383 8.34588C5.65039 7.76954 6.59343 7.39771 7.58361 7.26169C8.57378 7.12566 9.58215 7.22942 10.5239 7.56422C11.4656 7.89902 12.3132 8.45508 12.9953 9.18562C13.6774 9.91617 14.1741 10.7998 14.4436 11.7623C14.7131 12.7248 14.7475 13.7379 14.5439 14.7164C14.3404 15.6949 13.9048 16.6103 13.2739 17.3854L17.8081 21.9204L16.9247 22.8046L12.3914 18.2713C11.4774 19.021 10.3692 19.4957 9.19587 19.6402C8.02254 19.7846 6.83231 19.5929 5.7637 19.0873C4.69508 18.5818 3.79202 17.7831 3.1596 16.7843C2.52719 15.7855 2.19143 14.6276 2.19141 13.4454Z" fill="#E1672A"/>
</svg>
