<svg width="20" height="20" viewBox="0 0 20 20" fill="none" xmlns="http://www.w3.org/2000/svg">
<g clip-path="url(#clip0_64_5009)">
<path d="M7.84314 18.5728L1.4848 11.9978L3.04314 10.4395L5.86814 10.9395C5.9348 10.9395 6.2848 10.9395 6.47647 10.7645L8.26814 9.03118C8.2848 8.98952 8.30147 8.92285 8.30147 8.89785C8.30147 8.88118 8.24313 8.81452 8.0848 8.73952L2.0848 5.97285L4.36814 3.73952L11.7265 5.06452C11.8931 5.08118 12.1348 5.08118 12.2431 5.06452L14.9181 2.36452C15.6348 1.71452 17.0681 0.906182 18.0515 1.88118C19.0265 2.85618 18.2515 4.28118 17.6431 4.97285L15.0098 7.66452C14.9931 7.71452 14.9681 7.86452 15.0181 8.17285L16.2848 15.5312L14.0348 17.5562L11.2931 11.8562C11.2528 11.8063 11.2015 11.7663 11.1431 11.7395L9.06814 13.6812C9.06814 13.6812 9.0598 13.8062 9.07647 13.9312L9.5348 16.9479L7.8348 18.5728H7.84314ZM3.2348 12.0145L7.87647 16.8062L8.2098 16.4895L7.85147 14.1145C7.71814 13.2479 8.0598 12.8645 8.27647 12.7145L10.2931 10.8478C10.6681 10.4978 11.0515 10.4645 11.2931 10.4895C11.9015 10.5562 12.2765 11.0645 12.3515 11.1645L12.4015 11.2478L14.4431 15.4979L14.9348 15.0478L13.7848 8.37285C13.6098 7.35618 13.9431 6.91452 14.1515 6.73952L16.7265 4.11452C16.9348 3.87285 17.4681 3.06452 17.1681 2.75618C16.8681 2.45618 16.0348 3.02285 15.7848 3.25618L13.0598 5.99785C12.6681 6.37285 11.9348 6.34785 11.5348 6.28952L4.7848 5.08118L4.2598 5.59785L8.60147 7.59785C9.2098 7.87285 9.42647 8.28118 9.50147 8.57285C9.66814 9.19785 9.3098 9.72285 9.26814 9.78118L9.19314 9.87285L7.32647 11.6812C6.67647 12.2728 5.7848 12.1978 5.69314 12.1812L3.46814 11.7895L3.24314 12.0145H3.2348Z" fill="#E1672A"/>
</g>
<defs>
<clipPath id="clip0_64_5009">
<rect width="20" height="20" fill="white"/>
</clipPath>
</defs>
</svg>
