<svg width="20" height="20" viewBox="0 0 20 20" fill="none" xmlns="http://www.w3.org/2000/svg">
<g clip-path="url(#clip0_64_4984)">
<path fill-rule="evenodd" clip-rule="evenodd" d="M2.71 4.50374C2.71 4.11208 3.02667 3.79541 3.41834 3.79541H16.4383C16.83 3.79541 17.1467 4.11208 17.1467 4.50374V10.0446C17.7133 10.5129 18.1633 11.2054 18.1633 12.1646V16.2037H16.9133V14.8079H3.08667V16.2029H1.83667V12.1412C1.8575 11.5962 2.09 10.8179 2.71084 10.1829L2.71 4.50374ZM4.90584 9.15958C5.12473 9.13069 5.35695 9.11624 5.6025 9.11624H8.84917C8.43 8.71458 7.7575 8.34124 6.82167 8.34124C5.91334 8.34124 5.2975 8.73041 4.90584 9.15958ZM11.0625 9.11624H14.7858L14.8158 9.11958C14.9519 9.1318 15.1008 9.15458 15.2625 9.18791C15.2064 9.11836 15.1448 9.05342 15.0783 8.99374C14.7058 8.65208 14.095 8.34124 13.2 8.34124C12.3017 8.34124 11.7417 8.56874 11.3833 8.82791C11.2663 8.91217 11.1587 9.00885 11.0625 9.11624ZM15.8958 8.04791C15.2908 7.50541 14.3858 7.09124 13.2 7.09124C12.0775 7.09124 11.2517 7.38041 10.65 7.81458C10.365 8.02124 10.1417 8.25208 9.96584 8.48291C9.3525 7.76541 8.295 7.09124 6.82084 7.09124C5.46334 7.09124 4.54334 7.68458 3.95917 8.34374V5.04541H15.8958V8.04791ZM3.08584 13.5579H16.9142V12.1637C16.9142 11.5779 16.6183 11.1737 16.1742 10.8762C15.7075 10.5646 15.1217 10.4087 14.7242 10.3654H5.60334C4.67167 10.3654 4.095 10.6296 3.73917 10.9304C3.26417 11.3321 3.10167 11.8662 3.08667 12.1771L3.08584 13.5579Z" fill="#E1672A"/>
</g>
<defs>
<clipPath id="clip0_64_4984">
<rect width="20" height="20" fill="white"/>
</clipPath>
</defs>
</svg>
