<svg width="17" height="17" viewBox="0 0 17 17" fill="none" xmlns="http://www.w3.org/2000/svg">
<path fill-rule="evenodd" clip-rule="evenodd" d="M6.59472 6.95595H9.55415C9.50527 5.82899 9.30198 4.83591 9.01156 4.11057C8.84369 3.69053 8.65669 3.38594 8.47606 3.19469C8.3266 3.03673 8.20689 2.98219 8.12189 2.96803H8.02769C7.94269 2.98219 7.82298 3.03673 7.67352 3.19469C7.49289 3.38594 7.30589 3.69053 7.13802 4.11057C6.8476 4.83591 6.64431 5.82899 6.59472 6.95595ZM6.32981 3.31511C6.26606 3.44355 6.20656 3.57719 6.15131 3.71603C5.80422 4.58445 5.58181 5.71637 5.53222 6.95595H3.58076C3.6755 6.1601 3.97986 5.40367 4.46273 4.76399C4.9456 4.12431 5.59038 3.62431 6.32981 3.31511ZM7.95898 1.90623C6.49779 1.93534 5.10625 2.53617 4.08307 3.57974C3.0599 4.62331 2.48665 6.02643 2.48638 7.48791C2.48592 8.22145 2.63004 8.94788 2.91052 9.62567C3.19099 10.3035 3.60231 10.9193 4.12097 11.438C4.63962 11.9568 5.25543 12.3682 5.93319 12.6487C6.61095 12.9293 7.33736 13.0735 8.07089 13.0731C8.48456 13.0731 8.68785 13.0632 8.85715 13.0207C8.94498 12.9988 8.97898 12.986 9.00802 12.9754C9.04911 12.9612 9.07815 12.9499 9.22902 12.9237L9.04486 11.8775C8.89378 11.9029 8.74501 11.9406 8.60002 11.9901C8.57806 11.995 8.50652 12.0106 8.07373 12.0106C7.98802 12.0106 7.85202 11.9681 7.67281 11.779C7.49219 11.5878 7.30518 11.2839 7.13731 10.8638C6.84689 10.1378 6.6436 9.14542 6.59402 8.01846H9.57115C9.56257 8.21951 9.53578 8.41937 9.49111 8.61558C9.46815 8.71401 9.44169 8.81158 9.41177 8.90812L9.40327 8.93646L9.40044 8.94779C9.37636 9.02854 9.3374 9.15887 9.32961 9.28637L10.3907 9.34871V9.35296C10.3907 9.35296 10.3957 9.32817 10.4219 9.23892L10.4304 9.21058C10.4573 9.12133 10.4941 8.9995 10.5267 8.85287C10.5777 8.63117 10.6216 8.35846 10.6344 8.01846H12.5709C12.551 8.2471 12.5046 8.47267 12.4328 8.69067C12.3939 8.804 12.3549 8.889 12.3152 8.97612L12.3124 8.98321L12.3053 8.99737C12.2727 9.06892 12.2118 9.20137 12.1913 9.34162L13.2424 9.49675L13.2389 9.51517C13.2389 9.51517 13.2474 9.4925 13.2793 9.42308L13.2849 9.41033C13.3246 9.32321 13.382 9.19783 13.4379 9.03562C13.5569 8.68854 13.6575 8.20829 13.6575 7.4872C13.6576 6.0264 13.0851 4.62377 12.0627 3.58035C11.0404 2.53693 9.64969 1.93589 8.18919 1.90623C8.11258 1.89999 8.03559 1.89999 7.95898 1.90623ZM9.81907 3.31582C9.88234 3.44379 9.94184 3.57719 9.99757 3.71603C10.3446 4.58445 10.5678 5.71637 10.6174 6.95595H12.5653C12.4714 6.16009 12.1677 5.4035 11.6851 4.76372C11.2025 4.12394 10.5585 3.62399 9.81907 3.31511M6.33264 11.6635C6.26691 11.5307 6.20642 11.3953 6.15131 11.2577C5.80422 10.3885 5.5811 9.25733 5.53151 8.01775H3.58076C3.67499 8.81487 3.9795 9.57259 4.46307 10.2132C4.94664 10.8539 5.59188 11.3544 6.33264 11.6635Z" fill="#E1672A"/>
<path fill-rule="evenodd" clip-rule="evenodd" d="M14.5132 8.74323H8.31529V13.4522H12.0376L14.5132 15.0991V8.74323ZM13.4507 9.80574V13.1165L12.3585 12.3897H9.3785V9.80574H13.4507Z" fill="#E1672A"/>
</svg>
