<svg width="20" height="20" viewBox="0 0 20 20" fill="none" xmlns="http://www.w3.org/2000/svg">
<g clip-path="url(#clip0_64_5001)">
<path fill-rule="evenodd" clip-rule="evenodd" d="M11.315 4.07544L13.5417 1.84961L14.425 2.73294L12.1992 4.95961C11.6334 5.52544 11.32 6.17794 11.2659 6.79211C11.23 7.20878 11.3109 7.62794 11.5384 8.01878L15.625 3.93294L16.5084 4.81628L12.42 8.90461C12.8142 9.13878 13.2317 9.22711 13.6417 9.19961C14.24 9.16044 14.8642 8.87128 15.3884 8.34711C16.0992 7.63548 16.8087 6.92242 17.5167 6.20794L17.705 6.01794L18.5942 6.89711L18.405 7.08878C17.6953 7.80401 16.9842 8.5179 16.2717 9.23044C15.5642 9.93794 14.6659 10.3838 13.7242 10.4463C12.9366 10.4988 12.1556 10.2722 11.5184 9.80628L10.4925 10.8329L16.9259 17.2663L16.0417 18.1496L11.0667 13.1746L8.56669 15.6746L7.10836 14.2163L3.17503 18.1496L2.29169 17.2663L6.22503 13.3329L2.56503 9.67378C2.1974 9.3062 1.90578 8.86981 1.70682 8.38953C1.50786 7.90925 1.40546 7.39447 1.40546 6.87461C1.40546 6.35474 1.50786 5.83997 1.70682 5.35969C1.90578 4.8794 2.1974 4.44302 2.56503 4.07544L3.15003 3.49044L9.60836 9.94878L10.6359 8.92211C10.1675 8.27465 9.94938 7.47957 10.0217 6.68378C10.105 5.72794 10.5792 4.81211 11.315 4.07544ZM10.1834 12.2913L3.17336 5.28128C2.79383 5.80297 2.613 6.44302 2.66341 7.08619C2.71383 7.72937 2.99218 8.33342 3.44836 8.78961L8.56669 13.9071L10.1834 12.2913Z" fill="#E1672A"/>
</g>
<defs>
<clipPath id="clip0_64_5001">
<rect width="20" height="20" fill="white"/>
</clipPath>
</defs>
</svg>
