<svg width="20" height="20" viewBox="0 0 20 20" fill="none" xmlns="http://www.w3.org/2000/svg">
<g clip-path="url(#clip0_64_4992)">
<path fill-rule="evenodd" clip-rule="evenodd" d="M1.87488 3.95654H18.1249V7.66821L17.6782 7.80154C17.2058 7.94324 16.7916 8.23347 16.4972 8.62918C16.2027 9.02488 16.0437 9.50498 16.0437 9.99821C16.0437 10.4914 16.2027 10.9715 16.4972 11.3672C16.7916 11.7629 17.2058 12.0532 17.6782 12.1949L18.1249 12.3282V16.0399H1.87488V12.3282L2.32154 12.1949C2.79399 12.0532 3.20816 11.7629 3.5026 11.3672C3.79705 10.9715 3.95607 10.4914 3.95607 9.99821C3.95607 9.50498 3.79705 9.02488 3.5026 8.62918C3.20816 8.23347 2.79399 7.94324 2.32154 7.80154L1.87488 7.66821V3.95654ZM3.12488 5.20654V6.76988C3.74628 7.05022 4.27358 7.50396 4.64346 8.07661C5.01334 8.64926 5.21009 9.31649 5.21009 9.99821C5.21009 10.6799 5.01334 11.3472 4.64346 11.9198C4.27358 12.4925 3.74628 12.9462 3.12488 13.2265V14.7899H16.8749V13.2265C16.2535 12.9462 15.7262 12.4925 15.3563 11.9198C14.9864 11.3472 14.7897 10.6799 14.7897 9.99821C14.7897 9.31649 14.9864 8.64926 15.3563 8.07661C15.7262 7.50396 16.2535 7.05022 16.8749 6.76988V5.20654H3.12488Z" fill="#E1672A"/>
<path d="M9.99978 12.0843C10.2208 12.0843 10.4328 12.1721 10.589 12.3284C10.7453 12.4847 10.8331 12.6966 10.8331 12.9176C10.8331 13.1387 10.7453 13.3506 10.589 13.5069C10.4328 13.6632 10.2208 13.751 9.99978 13.751C9.77876 13.751 9.5668 13.6632 9.41052 13.5069C9.25424 13.3506 9.16644 13.1387 9.16644 12.9176C9.16644 12.6966 9.25424 12.4847 9.41052 12.3284C9.5668 12.1721 9.77876 12.0843 9.99978 12.0843ZM9.99978 9.16764C10.2208 9.16764 10.4328 9.25544 10.589 9.41172C10.7453 9.568 10.8331 9.77996 10.8331 10.001C10.8331 10.222 10.7453 10.434 10.589 10.5902C10.4328 10.7465 10.2208 10.8343 9.99978 10.8343C9.77876 10.8343 9.5668 10.7465 9.41052 10.5902C9.25424 10.434 9.16644 10.222 9.16644 10.001C9.16644 9.77996 9.25424 9.568 9.41052 9.41172C9.5668 9.25544 9.77876 9.16764 9.99978 9.16764ZM9.99978 6.25098C10.2208 6.25098 10.4328 6.33877 10.589 6.49505C10.7453 6.65133 10.8331 6.8633 10.8331 7.08431C10.8331 7.30532 10.7453 7.51728 10.589 7.67357C10.4328 7.82985 10.2208 7.91764 9.99978 7.91764C9.77876 7.91764 9.5668 7.82985 9.41052 7.67357C9.25424 7.51728 9.16644 7.30532 9.16644 7.08431C9.16644 6.8633 9.25424 6.65133 9.41052 6.49505C9.5668 6.33877 9.77876 6.25098 9.99978 6.25098Z" fill="#E1672A"/>
</g>
<defs>
<clipPath id="clip0_64_4992">
<rect width="20" height="20" fill="white"/>
</clipPath>
</defs>
</svg>
