<svg width="20" height="20" viewBox="0 0 20 20" fill="none" xmlns="http://www.w3.org/2000/svg">
<g clip-path="url(#clip0_64_4975)">
<path fill-rule="evenodd" clip-rule="evenodd" d="M9.90752 2.95158C9.87324 2.92865 9.83293 2.91641 9.79169 2.91641C9.75045 2.91641 9.71013 2.92865 9.67585 2.95158L3.00919 7.39575C2.9807 7.4148 2.95736 7.44059 2.94122 7.47083C2.92509 7.50106 2.91666 7.53481 2.91669 7.56908V16.2899C2.91669 16.4049 3.01002 16.4983 3.12502 16.4983H16.4584C16.5136 16.4983 16.5666 16.4763 16.6057 16.4372C16.6447 16.3982 16.6667 16.3452 16.6667 16.2899V7.56908C16.6667 7.53481 16.6583 7.50106 16.6422 7.47083C16.626 7.44059 16.6027 7.4148 16.5742 7.39575L9.90752 2.95158ZM8.98252 1.91158C9.22213 1.75178 9.50368 1.6665 9.79169 1.6665C10.0797 1.6665 10.3612 1.75178 10.6009 1.91158L17.2675 6.35575C17.6734 6.62658 17.9167 7.08158 17.9167 7.56908V16.2899C17.9167 16.6767 17.763 17.0476 17.4896 17.3211C17.2161 17.5946 16.8451 17.7483 16.4584 17.7483H3.12502C2.93351 17.7483 2.74387 17.7105 2.56694 17.6372C2.39001 17.564 2.22924 17.4565 2.09382 17.3211C1.9584 17.1857 1.85098 17.0249 1.7777 16.848C1.70441 16.6711 1.66669 16.4814 1.66669 16.2899V7.56908C1.66669 7.08158 1.91002 6.62658 2.31669 6.35575L8.98252 1.91158Z" fill="#E1672A"/>
</g>
<defs>
<clipPath id="clip0_64_4975">
<rect width="20" height="20" fill="white"/>
</clipPath>
</defs>
</svg>
