<svg width="20" height="20" viewBox="0 0 20 20" fill="none" xmlns="http://www.w3.org/2000/svg">
<g clip-path="url(#clip0_64_5017)">
<path fill-rule="evenodd" clip-rule="evenodd" d="M9.99573 1.81396L18.1291 7.23063V18.1906H1.87073V7.23063L9.99573 1.81396ZM9.99573 3.31646L3.12073 7.8998V16.9406H16.8791V7.8998L9.99573 3.31646ZM7.50406 10.2823C7.22779 10.2823 6.96284 10.392 6.76749 10.5874C6.57214 10.7827 6.46239 11.0477 6.46239 11.324C6.46239 11.6002 6.57214 11.8652 6.76749 12.0605C6.96284 12.2559 7.22779 12.3656 7.50406 12.3656C7.78033 12.3656 8.04528 12.2559 8.24063 12.0605C8.43598 11.8652 8.54573 11.6002 8.54573 11.324C8.54573 11.0477 8.43598 10.7827 8.24063 10.5874C8.04528 10.392 7.78033 10.2823 7.50406 10.2823ZM5.21239 11.324C5.21222 10.7707 5.4122 10.2361 5.77542 9.81873C6.13864 9.40139 6.64058 9.12955 7.18857 9.05339C7.73656 8.97722 8.29361 9.10187 8.75688 9.40433C9.22014 9.70679 9.55835 10.1666 9.70906 10.699H14.9957V11.949H13.1207V13.824H11.8707V11.949H9.70906C9.55719 12.4801 9.21863 12.9386 8.75566 13.24C8.2927 13.5414 7.73646 13.6655 7.18928 13.5894C6.64211 13.5134 6.1408 13.2423 5.77758 12.826C5.41435 12.4098 5.21365 11.8764 5.21239 11.324Z" fill="#E1672A"/>
</g>
<defs>
<clipPath id="clip0_64_5017">
<rect width="20" height="20" fill="white"/>
</clipPath>
</defs>
</svg>
