<svg width="20" height="30" viewBox="0 0 20 30" fill="none" xmlns="http://www.w3.org/2000/svg">
<path fill-rule="evenodd" clip-rule="evenodd" d="M8.43323 8.45229C7.10935 8.45229 5.8397 8.9782 4.90358 9.91432C3.96746 10.8504 3.44156 12.1201 3.44156 13.444C3.44156 14.7678 3.96746 16.0375 4.90358 16.9736C5.8397 17.9097 7.10935 18.4356 8.43323 18.4356C9.7571 18.4356 11.0267 17.9097 11.9629 16.9736C12.899 16.0375 13.4249 14.7678 13.4249 13.444C13.4249 12.1201 12.899 10.8504 11.9629 9.91432C11.0267 8.9782 9.7571 8.45229 8.43323 8.45229ZM2.19156 13.444C2.19154 12.4445 2.43153 11.4596 2.89137 10.5722C3.3512 9.68478 4.01742 8.92077 4.83398 8.34442C5.65055 7.76807 6.59358 7.39625 7.58376 7.26022C8.57394 7.1242 9.5823 7.22795 10.524 7.56275C11.4658 7.89755 12.3133 8.45361 12.9954 9.18416C13.6775 9.9147 14.1742 10.7984 14.4437 11.7608C14.7132 12.7233 14.7476 13.7364 14.5441 14.7149C14.3406 15.6935 13.905 16.6088 13.2741 17.384L17.8082 21.919L16.9249 22.8031L12.3916 18.2698C11.4775 19.0195 10.3693 19.4942 9.19602 19.6387C8.02269 19.7832 6.83247 19.5915 5.76385 19.0859C4.69523 18.5803 3.79217 17.7816 3.15975 16.7828C2.52734 15.784 2.19158 14.6261 2.19156 13.444Z" fill="#E1672A"/>
</svg>
