<svg width="607" height="75" viewBox="0 0 607 75" fill="none" xmlns="http://www.w3.org/2000/svg">
<rect width="12.5" height="12.5" transform="translate(579.997 0.824219)" fill="#E3D8BF"/>
<path d="M584.996 6.38815C585.304 6.38815 585.554 6.13818 585.554 5.82982C585.554 5.52146 585.304 5.27148 584.996 5.27148C584.687 5.27148 584.437 5.52146 584.437 5.82982C584.437 6.13818 584.687 6.38815 584.996 6.38815Z" fill="#00AECD"/>
<path d="M583.498 10.2388C582.998 10.5166 582.748 10.3638 582.748 9.78047V4.2388C582.748 3.68325 583.026 3.51658 583.581 3.7388L588.665 6.65547C589.553 6.93325 589.553 7.21102 588.665 7.4888L585.54 9.15547V7.28047C585.54 7.20934 585.526 7.1389 585.498 7.07318C585.471 7.00746 585.431 6.94775 585.381 6.89745C585.331 6.84715 585.271 6.80726 585.205 6.78003C585.139 6.75281 585.069 6.7388 584.998 6.7388C584.927 6.7388 584.856 6.75281 584.791 6.78003C584.725 6.80726 584.665 6.84715 584.615 6.89745C584.565 6.94775 584.525 7.00746 584.497 7.07318C584.47 7.1389 584.456 7.20934 584.456 7.28047V9.78047C584.457 9.90768 584.49 10.0326 584.553 10.1434C584.615 10.2542 584.705 10.3474 584.813 10.414C584.921 10.4807 585.045 10.5187 585.172 10.5245C585.299 10.5303 585.426 10.5037 585.54 10.4471L590.581 7.65547C591.137 7.26658 591.137 6.84991 590.581 6.40547L582.748 2.15547C582.137 1.9888 581.72 2.2388 581.498 2.90547V11.2388C581.72 12.0166 582.137 12.2388 582.748 11.9055L583.998 11.2388C584.13 11.1725 584.231 11.0562 584.278 10.9156C584.325 10.7749 584.314 10.6214 584.248 10.4888C584.182 10.3562 584.065 10.2554 583.925 10.2085C583.784 10.1616 583.63 10.1725 583.498 10.2388Z" fill="#00AECD"/>
<rect width="12.5" height="12.5" transform="translate(593.332 0.824219)" fill="#E3D8BF"/>
<path d="M596.04 3.53711L603.123 10.6204L596.04 3.53711ZM603.123 3.53711L596.04 10.6204L603.123 3.53711Z" fill="#00AECD"/>
<path d="M596.04 3.53711L603.123 10.6204M603.123 3.53711L596.04 10.6204" stroke="#00AECD" stroke-width="1.04167"/>
</svg>
