<svg width="17" height="17" viewBox="0 0 17 17" fill="none" xmlns="http://www.w3.org/2000/svg">
<path fill-rule="evenodd" clip-rule="evenodd" d="M12.6566 3.30593H4.34376V3.57792L4.14827 3.73729L2.94625 4.71477C3.32045 4.95787 3.69973 5.19309 4.08381 5.42026L4.25522 5.52226L4.31755 5.71209C4.47055 6.17887 4.84171 6.91198 5.44166 7.52964C6.03452 8.14021 6.82501 8.61549 7.83436 8.64878L8.34718 8.66649V12.0983L7.94344 12.1975C7.54324 12.2973 6.94117 12.5091 6.45314 12.8109C5.95236 13.1211 5.73915 13.4165 5.72144 13.6523C5.75969 13.6644 5.82769 13.6786 5.93961 13.6786H11.0608C11.1727 13.6786 11.2407 13.6644 11.2789 13.6523C11.2612 13.4165 11.048 13.1211 10.5465 12.8109C10.0592 12.5098 9.45712 12.2973 9.05621 12.1982L8.65247 12.0983V8.66649L9.166 8.64949C10.1754 8.61549 10.9658 8.14021 11.5587 7.52964C12.1579 6.91198 12.5291 6.17887 12.6828 5.71209L12.7451 5.52226L12.9166 5.42026C13.129 5.29489 13.4556 5.09727 13.7467 4.91381C13.8593 4.84298 13.9642 4.77498 14.0541 4.71548L12.8521 3.738L12.6566 3.57792V3.30593ZM11.1011 14.7403C11.5027 14.7332 11.8392 14.6206 12.0708 14.3862C12.2932 14.1609 12.3626 13.8804 12.3421 13.6523C12.3258 12.8293 11.6692 12.2555 11.1054 11.907C10.6682 11.6452 10.2017 11.4355 9.71566 11.2823V9.6638C10.8199 9.49593 11.6862 8.92432 12.3216 8.26912C12.8853 7.68395 13.3278 6.99307 13.6235 6.23624C13.8275 6.1137 14.081 5.96 14.3141 5.81267C14.4642 5.71705 14.6101 5.62284 14.7291 5.54209C14.8333 5.47126 14.9601 5.3813 15.0394 5.30268C15.1291 5.21482 15.1967 5.10692 15.2366 4.98784C15.2765 4.86877 15.2876 4.74192 15.2689 4.61773C15.2432 4.45357 15.1715 4.30007 15.0621 4.17503L15.033 4.14174L14.999 4.11412L13.7191 3.07289V2.24416H3.28128V3.07289L2.00135 4.11412L1.96735 4.14245L1.93831 4.17503C1.85473 4.26995 1.76123 4.42295 1.73148 4.61773C1.69819 4.83944 1.75485 5.09656 1.96098 5.30268C2.0396 5.3813 2.1671 5.47126 2.27122 5.54209C2.39022 5.62284 2.53613 5.71705 2.68629 5.81267C2.92004 5.95929 3.17291 6.1137 3.3762 6.23624C3.67232 6.99319 4.11525 7.68408 4.67951 8.26912C5.31416 8.92432 6.18114 9.49593 7.28471 9.66451V11.2823C6.79863 11.4355 6.3322 11.6452 5.89498 11.907C5.33116 12.2555 4.67455 12.8293 4.65826 13.6523C4.63772 13.8804 4.70713 14.1609 4.92954 14.3862C5.16895 14.6284 5.52028 14.7403 5.93961 14.7403H11.1011Z" fill="#E1672A"/>
</svg>
