<svg width="17" height="17" viewBox="0 0 17 17" fill="none" xmlns="http://www.w3.org/2000/svg">
<path fill-rule="evenodd" clip-rule="evenodd" d="M13.3475 10.5519C13.8016 9.53544 13.9284 8.49987 13.6946 7.52593C13.4481 6.49391 12.8099 5.58231 11.8317 4.8669C9.89166 3.44956 6.60293 2.78798 2.11289 3.36668L1.56819 3.43751L1.65673 3.97867C2.03214 6.29912 3.88794 9.12744 6.0894 10.8345C7.19579 11.6923 8.44314 12.3099 9.6912 12.402C10.753 12.4799 11.7793 12.1746 12.6661 11.3856C13.4906 12.3227 14.1359 13.2024 14.5361 13.8279L15.4307 13.2562C14.9845 12.5564 14.2634 11.5796 13.3475 10.5519ZM12.545 9.69198C12.7717 9.01199 12.8036 8.36317 12.6619 7.77243C12.482 7.02019 12.0102 6.31329 11.2056 5.72539C9.65295 4.58995 6.87634 3.91917 2.82334 4.35266C3.32908 6.26017 4.88242 8.553 6.74105 9.99514C7.75466 10.7814 8.8058 11.2715 9.77053 11.3424C10.5355 11.399 11.2764 11.195 11.9486 10.6029C11.7556 10.4021 11.5589 10.2049 11.3586 10.0114C9.90157 8.60258 8.16265 7.31556 6.36139 6.72907L6.69076 5.71901C8.7116 6.37633 10.5879 7.78801 12.0974 9.24715C12.2499 9.39495 12.3991 9.54323 12.545 9.69198Z" fill="black"/>
</svg>
