<svg width="17" height="17" viewBox="0 0 17 17" fill="none" xmlns="http://www.w3.org/2000/svg">
<path fill-rule="evenodd" clip-rule="evenodd" d="M8.50293 2.75016L15.4756 14.2349H1.52244L4.73467 9.17745L8.50293 2.75016ZM5.62361 9.7604L3.45615 13.1731H13.5865L11.7704 10.1811L11.7194 10.2236C11.4106 10.4701 10.941 10.694 10.2808 10.694C9.89194 10.694 9.55832 10.5629 9.27499 10.405C9.04262 10.2695 8.81906 10.1196 8.60563 9.9559L8.50718 9.88365C8.02127 9.5302 7.61469 9.27733 7.09337 9.27733C6.47855 9.27733 6.09606 9.42961 5.88002 9.55711C5.7857 9.61289 5.69943 9.68129 5.62361 9.7604ZM11.2016 9.24474L8.5178 4.82483L6.5083 8.2531C6.68774 8.22807 6.88276 8.21532 7.09337 8.21485C7.98939 8.21485 8.64459 8.66959 9.13262 9.02446L9.2417 9.1045C9.44995 9.25678 9.61995 9.38074 9.79278 9.47778C9.98544 9.58474 10.1384 9.63148 10.2808 9.63148C10.6831 9.63148 10.9218 9.50115 11.0557 9.39349C11.1265 9.33682 11.1733 9.28299 11.2002 9.24616L11.2016 9.24474Z" fill="#E1672A"/>
</svg>
