<svg width="17" height="17" viewBox="0 0 17 17" fill="none" xmlns="http://www.w3.org/2000/svg">
<path fill-rule="evenodd" clip-rule="evenodd" d="M6.59421 6.9558H9.55356C9.50469 5.82886 9.3014 4.8358 9.01099 4.11048C8.84312 3.69045 8.65612 3.38587 8.4755 3.19462C8.32605 3.03667 8.20634 2.98213 8.12134 2.96796H8.02714C7.94214 2.98213 7.82243 3.03667 7.67298 3.19462C7.49236 3.38587 7.30536 3.69045 7.13749 4.11048C6.84708 4.8358 6.64379 5.82886 6.59421 6.9558ZM6.32929 3.31504C6.26555 3.44348 6.20605 3.57712 6.1508 3.71595C5.80372 4.58435 5.58131 5.71624 5.53173 6.9558H3.58031C3.67504 6.15996 3.9794 5.40355 4.46226 4.76388C4.94512 4.12422 5.58988 3.62423 6.32929 3.31504ZM7.95843 1.90619C6.49727 1.9353 5.10576 2.53611 4.08261 3.57966C3.05946 4.6232 2.48622 6.0263 2.48595 7.48775C2.48549 8.22126 2.62961 8.94768 2.91008 9.62546C3.19055 10.3032 3.60186 10.9191 4.1205 11.4378C4.63914 11.9565 5.25494 12.3679 5.93269 12.6485C6.61043 12.929 7.33683 13.0732 8.07034 13.0728C8.484 13.0728 8.68729 13.0629 8.85658 13.0204C8.94441 12.9985 8.97841 12.9857 9.00745 12.9751C9.04853 12.9609 9.07757 12.9496 9.22845 12.9234L9.04428 11.8772C8.89321 11.9027 8.74444 11.9403 8.59946 11.9898C8.5775 11.9948 8.50596 12.0104 8.07318 12.0104C7.98747 12.0104 7.85147 11.9679 7.67227 11.7787C7.49165 11.5875 7.30465 11.2836 7.13678 10.8636C6.84637 10.1376 6.64308 9.14521 6.5935 8.01828H9.57056C9.56199 8.21933 9.5352 8.41918 9.49052 8.61539C9.46757 8.71382 9.44111 8.81139 9.41119 8.90793L9.40269 8.93626L9.39986 8.94759C9.37578 9.02834 9.33682 9.15867 9.32903 9.28617L10.3901 9.3485V9.35275C10.3901 9.35275 10.395 9.32796 10.4213 9.23871L10.4298 9.21038C10.4567 9.12113 10.4935 8.9993 10.5261 8.85268C10.5771 8.63098 10.621 8.35827 10.6338 8.01828H12.5703C12.5503 8.24692 12.504 8.47249 12.4322 8.69047C12.3932 8.80381 12.3543 8.8888 12.3146 8.97593L12.3118 8.98301L12.3047 8.99718C12.2721 9.06872 12.2112 9.20117 12.1906 9.34142L13.2418 9.49654L13.2382 9.51496C13.2382 9.51496 13.2467 9.49229 13.2786 9.42288L13.2843 9.41013C13.3239 9.323 13.3813 9.19763 13.4373 9.03542C13.5563 8.68835 13.6569 8.20811 13.6569 7.48704C13.657 6.02627 13.0844 4.62367 12.0621 3.58027C11.0397 2.53688 9.6491 1.93585 8.18863 1.90619C8.11203 1.89994 8.03504 1.89994 7.95843 1.90619ZM9.81848 3.31575C9.88175 3.44372 9.94125 3.57712 9.99697 3.71595C10.344 4.58435 10.5672 5.71624 10.6168 6.9558H12.5646C12.4708 6.15996 12.167 5.40338 11.6845 4.76362C11.2019 4.12385 10.5579 3.62391 9.81848 3.31504M6.33213 11.6633C6.2664 11.5304 6.20591 11.395 6.1508 11.2574C5.80372 10.3883 5.5806 9.25713 5.53102 8.01757H3.58031C3.67453 8.81467 3.97904 9.57238 4.4626 10.213C4.94616 10.8537 5.59138 11.3542 6.33213 11.6633Z" fill="#E1672A"/>
<path fill-rule="evenodd" clip-rule="evenodd" d="M14.513 8.74254H8.31517V13.4515H12.0374L14.513 15.0983V8.74254ZM13.4505 9.80502V13.1157L12.3583 12.389H9.37835V9.80502H13.4505Z" fill="#E1672A"/>
</svg>
