<svg width="17" height="17" viewBox="0 0 17 17" fill="none" xmlns="http://www.w3.org/2000/svg">
<path fill-rule="evenodd" clip-rule="evenodd" d="M9.61751 3.46373L11.5101 1.57181L12.261 2.32262L10.369 4.21525C9.88809 4.6962 9.62176 5.25082 9.57572 5.77285C9.54526 6.12701 9.61397 6.48329 9.80734 6.81549L13.2809 3.3426L14.0318 4.09342L10.5567 7.56844C10.8918 7.76748 11.2466 7.84256 11.5951 7.81918C12.1037 7.78589 12.6342 7.5401 13.0798 7.09457C13.684 6.48969 14.287 5.88361 14.8888 5.27632L15.0489 5.11482L15.8047 5.8621L15.6439 6.02501C15.0406 6.63295 14.4362 7.23974 13.8306 7.84539C13.2292 8.44675 12.4657 8.82571 11.6653 8.87883C10.9958 8.92349 10.332 8.73089 9.79034 8.33484L8.9184 9.20749L14.3866 14.6757L13.6351 15.4265L9.40643 11.1979L7.28147 13.3228L6.04192 12.0833L2.69865 15.4265L1.94783 14.6757L5.2911 11.3324L2.18016 8.22222C1.86768 7.90979 1.61981 7.53886 1.4507 7.13063C1.28158 6.7224 1.19454 6.28485 1.19454 5.84297C1.19454 5.4011 1.28158 4.96355 1.4507 4.55531C1.61981 4.14708 1.86768 3.77616 2.18016 3.46373L2.6774 2.96649L8.16687 8.45596L9.04023 7.58331C8.64217 7.03299 8.45674 6.35718 8.5182 5.68077C8.58903 4.86832 8.99207 4.08988 9.61751 3.46373ZM8.65561 10.447L2.69723 4.48866C2.37464 4.9321 2.22093 5.47613 2.26378 6.02281C2.30664 6.5695 2.54323 7.08293 2.93098 7.47069L7.28147 11.8205L8.65561 10.447Z" fill="#E1672A"/>
</svg>
